<?xml version="1.0" standalone="no"?>
<!DOCTYPE svg PUBLIC "-//W3C//DTD SVG 20010904//EN"
 "http://www.w3.org/TR/2001/REC-SVG-20010904/DTD/svg10.dtd">
<svg version="1.0" xmlns="http://www.w3.org/2000/svg"
 width="512.000000pt" height="512.000000pt" viewBox="0 0 512.000000 512.000000"
 preserveAspectRatio="xMidYMid meet">
<metadata>
Created by potrace 1.14, written by Peter Selinger 2001-2017
</metadata>
<g transform="translate(0.000000,512.000000) scale(0.100000,-0.100000)"
fill="#000000" stroke="none">
<path d="M1869 5046 c-2 -2 -35 -7 -74 -11 -38 -4 -72 -8 -75 -10 -4 -2 -24
-6 -46 -9 -59 -7 -232 -44 -289 -62 -27 -8 -88 -34 -135 -57 -162 -79 -309
-261 -324 -400 -4 -29 -8 -158 -10 -287 -3 -129 -7 -246 -10 -260 -2 -14 -7
-46 -10 -71 -9 -60 -14 -89 -31 -179 -8 -41 -16 -86 -19 -100 -2 -14 -11 -63
-20 -110 -17 -89 -22 -130 -31 -220 -3 -30 -8 -69 -10 -85 -3 -17 -7 -62 -10
-100 -3 -39 -7 -89 -10 -112 -3 -24 -8 -71 -10 -105 -3 -35 -7 -83 -10 -108
-5 -46 -11 -128 -20 -280 -5 -84 -13 -195 -20 -277 -3 -40 -12 -116 -20 -173
-2 -14 -7 -45 -10 -70 -8 -56 -34 -236 -40 -270 -2 -14 -7 -45 -10 -70 -3 -25
-8 -52 -10 -60 -2 -8 -6 -35 -9 -60 -3 -25 -8 -54 -10 -65 -9 -48 -19 -113
-22 -145 -2 -19 -6 -46 -9 -60 -3 -14 -7 -43 -11 -65 -3 -22 -7 -47 -9 -55 -2
-8 -7 -31 -10 -50 -25 -150 -63 -301 -102 -405 -67 -181 -161 -362 -219 -421
-11 -11 -32 -35 -49 -54 -25 -29 -22 -27 20 10 134 119 276 359 345 582 32
107 73 275 85 353 3 17 7 41 10 55 3 14 10 54 15 90 6 36 20 121 31 190 11 69
22 139 25 155 2 17 6 41 9 55 2 14 7 45 10 70 4 25 8 56 10 70 32 212 40 273
50 370 4 41 9 89 11 105 2 17 6 75 9 130 3 55 7 118 9 140 2 22 7 85 11 140 3
55 8 111 10 125 2 14 7 58 10 97 3 40 8 80 9 90 2 10 7 59 10 108 4 50 9 97
11 105 3 8 7 40 10 70 2 30 7 66 9 80 3 14 12 68 21 120 9 52 25 138 36 190
11 52 22 109 24 125 3 17 10 53 15 80 20 111 30 236 34 460 3 125 7 170 21
205 41 103 150 216 265 275 68 34 209 80 274 90 17 2 42 6 56 9 210 43 388 52
500 24 330 -81 465 -240 454 -534 -9 -260 -130 -529 -305 -679 -155 -133 -501
-262 -656 -246 -103 11 -334 2 -483 -19 -36 -5 -71 -10 -77 -10 -23 0 -53 -40
-53 -69 0 -20 9 -37 28 -52 26 -21 31 -21 232 -15 113 3 216 8 230 10 14 3 52
7 85 11 33 3 79 11 102 16 71 15 283 -37 394 -98 158 -86 289 -366 291 -623 1
-150 -8 -215 -53 -385 -89 -338 -121 -551 -116 -780 9 -395 159 -674 429 -798
150 -69 386 -82 628 -34 168 33 370 125 490 222 59 48 130 126 159 176 56 94
81 144 102 202 13 37 26 67 29 67 3 0 5 -32 5 -72 0 -216 82 -387 245 -513
186 -143 391 -190 705 -161 122 11 125 13 125 53 l0 34 -42 -7 c-161 -24 -351
-24 -460 1 -241 55 -433 229 -480 436 -14 65 -17 608 -3 829 11 183 12 1185 2
1265 -5 33 -10 71 -12 85 -2 14 -6 42 -9 62 -9 58 -25 130 -37 160 -18 45 -79
44 -94 -3 -6 -18 0 -168 9 -244 3 -16 7 -57 10 -90 4 -33 11 -98 16 -145 19
-167 25 -351 25 -745 0 -433 -4 -521 -34 -692 -42 -241 -102 -395 -207 -534
-146 -192 -489 -332 -810 -332 -318 1 -518 130 -623 402 -49 128 -65 228 -65
401 -1 230 23 407 86 640 56 206 75 316 77 455 4 265 -81 513 -229 665 -81 83
-117 103 -290 166 -9 3 7 15 42 29 216 88 379 209 476 353 150 220 225 528
186 761 -22 132 -111 276 -210 338 -75 49 -232 111 -324 128 -40 8 -245 17
-251 11z"/>
<path d="M4050 4753 c-305 -78 -320 -578 -24 -810 98 -77 201 -112 337 -114
74 -1 97 10 97 47 0 39 -25 54 -93 54 -126 1 -229 43 -313 130 -52 53 -65 71
-106 152 -59 119 -63 278 -9 391 38 80 90 124 175 148 52 15 55 17 25 17 -19
-1 -60 -7 -89 -15z"/>
</g>
</svg>
